Patient4_TMGait_0pt8_01_left_31_EMG.mot
version=1
nRows=20
nColumns=33
inDegrees=no
endheader
time	1LAddLong	2LGlutMax	3LGlutMed	4LIliopsoas	5LSemiMemb	6LBicFemLong	7LRecFem	8LVastMed	9LVastLat	10LGasMed	11LTibAnt	12lTibPost	13LPeroneusLong	14LSol	15LExtDigLong	16LFlexDigLong	17RAddLong	18RGlutMax	19RGlutMed	20RIliopsoas	21RSemiMemb	22RBicFemLong	23RRecFem	24RVastMed	25RVastLat	26RGasMed	27RTibAnt	28RTibPost	29RPeroneusLong	30RSol	31RExtDigLong	32RFlexDigLong
34.1	0.000153	0.38376	-0.059967	-0.010681	0.005646	-0.04425	0.17593	0.007782	0.015564	-0.019226	0.08667	0.032806	0.016174	-0.034637	0.37964	-0.000305	-0.019836	0.17746	-0.54504	-0.10132	-0.023193	0.042877	-0.45914	0.076904	0.37872	-0.002136	-0.43213	0.001831	-1.1877	-0.081635	-0.00351	-0.000458
34.101	0.000153	0.40802	-0.041504	0.000916	-0.023193	-0.047302	0.17624	0.014954	0.075378	-0.026855	0.13107	0.020294	0.013428	0.00061	-0.042572	0.001984	-0.010681	0.088043	-0.7164	0.007324	0.016174	-0.1059	-0.27176	-0.10208	0.1416	-0.005035	-0.26154	-0.009155	-0.4068	-0.1561	0.003967	-0.001221
34.102	0.000153	0.42435	-0.048065	0.002899	-0.027618	-0.08606	0.18951	0.007477	0.10132	-0.034485	0.088196	0.036316	0.006866	-0.009766	-0.14313	0	-0.010071	0.17181	-0.070648	0.009003	0.004272	-0.087585	-0.41107	-0.11688	-0.083771	-0.001831	-0.48706	-0.010071	-0.080109	-0.16083	-0.001831	0.001221
34.103	-0.000458	0.41657	-0.057068	0.006256	-0.004883	-0.083313	0.19623	0.006256	0.13534	-0.015869	-0.000916	0.024719	-0.009766	-0.031433	0.016785	0.010834	-0.028534	0.21225	0.88272	0.078735	-0.013885	-0.037231	-0.49225	-0.093689	-0.32867	-0.000305	-0.39627	-0.007477	-1.0786	-0.14862	-0.003052	-0.004272
34.104	0.002747	0.36438	-0.040894	0.002899	0.005188	-0.084229	0.19455	0.009918	0.15274	-0.03891	-0.023956	0.036926	0.003815	-0.046844	0.050659	-0.001373	-0.015717	0.12726	0.84	0.12619	-0.064545	-0.018921	-0.056	-0.037231	-0.57571	0.003052	-0.14725	-0.00473	-0.015869	-0.27847	0.005798	-0.003357
34.105	-0.001068	0.31082	-0.039825	-0.006714	-0.006104	-0.073853	0.21439	0.011292	0.20111	-0.078125	0.0177	0.034637	0.037994	-0.076599	0.30502	0.007782	0.027618	0.15228	0.064545	0.15533	0.072937	-0.15945	0.20783	0.002594	-0.32669	-0.005341	0.015717	-0.006409	0.20004	-0.18433	-0.001068	-0.002441
34.106	0.001678	0.30701	-0.019379	0.007629	-0.004425	-0.088348	0.20798	0.010986	0.21912	-0.021973	0.083923	0.039368	0.013885	-0.081177	-0.088348	0.011749	0.095825	0.17258	0.29572	0.13809	0.16815	-0.19699	0.1445	-0.080872	-0.12756	-0.006561	-0.087128	-0.010834	0.6662	-0.13565	-0.001221	-0.006104
34.107	0.005188	0.29739	-0.03479	-0.005951	-0.004578	-0.085449	0.22476	0.009766	0.21072	-0.007629	0.040131	0.039673	0.018921	-0.06012	-0.084229	0.007629	0.093384	0.27756	0.90073	0.023499	0.19669	-0.1561	0.07309	-0.20233	-0.09201	-0.015564	-0.12589	-0.005798	0.20172	-0.051575	-0.001984	-0.002747
34.108	-0.000153	0.31677	-0.033112	-0.004425	-0.002747	-0.1004	0.22583	0.013733	0.23438	-0.007629	-0.001678	0.032654	0.036011	-0.042267	-0.18906	0.013123	0.019073	0.3688	1.1467	-0.028687	0.04364	-0.010223	-0.096283	-0.1741	-0.019379	-0.011292	0.049591	-0.00824	-0.17838	0.1416	-0.001831	-0.012817
34.109	0.003052	0.27237	-0.028992	-0.018463	-0.001221	-0.083771	0.24246	0.013123	0.24002	0.008698	0.01358	0.03952	0.021515	-0.065002	0.051575	0.007019	-0.055389	0.35904	0.28534	-0.05249	-0.39261	0.023346	-0.14893	-0.039063	-0.01709	-0.012817	0.06958	-0.007019	-0.078583	0.13489	-0.005493	-0.009003
34.11	0.001831	0.26077	-0.028992	0.001221	0.001526	-0.097656	0.22369	0.010681	0.242	-0.010071	-0.03006	0.03418	0.004425	0.011597	-0.035553	0.01709	-0.06012	0.29221	-0.36591	-0.026855	-0.18402	0.017395	-0.099487	-0.010834	-0.046387	-0.004425	0.058746	-0.009766	-0.31036	0.11063	-0.000305	-0.011902
34.111	-0.005035	0.26047	-0.033417	-0.021362	-0.002899	-0.10071	0.23636	0.010529	0.23239	-0.009766	0.021973	0.032654	-0.036163	0.053253	0.22507	0.02121	-0.070953	0.31113	-0.21439	-0.010529	-0.20721	0.076447	-0.062714	0.05722	-0.059509	0.011292	0.055084	-0.005188	0.002441	-0.0354	-0.003815	-0.013428
34.112	0.000305	0.25421	-0.041809	0.001831	-0.006714	-0.079956	0.24857	0.005341	0.21759	-0.001373	0.099335	0.034637	-0.037994	-0.00351	-0.37109	0.029602	-0.05249	0.34607	-0.18677	0.051575	-0.010681	0.12436	0.039673	0.065308	-0.082703	-0.001373	0.034027	-0.000916	0.44464	-0.16632	0.001221	-0.005798
34.113	0.00473	0.23727	-0.032959	0.028687	-0.007019	-0.058441	0.22598	0.003662	0.22949	-0.036316	0.1355	0.027008	-0.021973	-0.021667	-0.19089	0.0177	-0.030212	0.26062	-0.1088	0.097809	0.10208	0.018158	0.074005	-0.020905	-0.037231	-0.003967	0.026245	-0.000763	0.19943	-0.18082	0.002136	-0.007935
34.114	0.002899	0.21362	-0.005951	0.019989	0.008545	-0.091705	0.23331	0.007324	0.23254	-0.033417	0.10651	0.024719	0.027008	-0.049896	-0.10529	0.014801	-0.007172	0.3215	-0.11841	0.063629	0.009766	-0.011597	0.037079	-0.093689	0.0177	-0.00061	0.055084	0	-0.62225	-0.002899	0.000458	-0.010376
34.115	0.009003	0.27359	-0.017853	0.022278	0.023804	-0.077972	0.21255	0.002747	0.24384	-0.037994	0.06012	0.026093	0.054932	-0.074463	-0.068817	0.017548	0.019531	0.25284	-0.40024	0.036011	-0.07782	-0.082703	0.063477	-0.11612	0.023193	0.000458	0.034943	-0.003052	-0.70541	0.18188	-0.003052	-0.003357
34.116	0.007172	0.26474	-0.028687	0.011139	0.001526	-0.10452	0.18509	0.006561	0.25085	-0.075531	-0.043793	0.02121	0.072479	-0.092163	-0.013428	0.032654	0.02655	0.2417	-0.33356	-0.007477	-0.24246	-0.1004	-0.015259	-0.15472	0.016174	-0.041046	0.019684	-0.00412	-0.44952	-0.044708	0.000153	-0.006409
34.117	0.010681	0.3067	-0.043182	0.007324	-0.012817	-0.091553	0.17517	0.007935	0.25223	-0.055389	0.003357	0.028687	0.11551	-0.033875	0.022583	0.026093	-0.008698	0.14679	-0.2945	0.022125	-0.32196	-0.06897	-0.12894	-0.19852	0.035553	-0.065308	0.046539	-0.014648	-0.19608	0.006104	0.003052	-0.009155
34.118	0.009155	0.30594	-0.0354	-0.00061	-0.009003	-0.083771	0.15091	0.003662	0.26093	-0.027313	0.037231	0.025177	0.061798	0.006409	0.016479	0.026093	-0.010223	0.072784	-0.16815	0.032654	-0.27161	-0.033264	-0.054169	-0.11978	0.020294	-0.050507	0.033722	-0.015259	0.20096	0.055389	0.001678	-0.011292
34.119	0.006866	0.31387	-0.009003	0.005951	0.005035	-0.069122	0.15015	0.007629	0.25421	-0.004272	-0.051727	0.017242	0.011902	0.046234	0.012665	0.019684	-0.009918	0.17334	-0.17151	-0.000458	0.13031	0.009308	0.012817	-0.024567	-0.017395	-0.012665	0.025482	-0.018768	0.1236	-0.15732	-0.002441	-0.011139
